<?xml version="1.0" standalone="no"?>
<!DOCTYPE svg PUBLIC "-//W3C//DTD SVG 20010904//EN"
 "http://www.w3.org/TR/2001/REC-SVG-20010904/DTD/svg10.dtd">
<svg version="1.0" xmlns="http://www.w3.org/2000/svg"
 width="1324.000000pt" height="1324.000000pt" viewBox="0 0 1324.000000 1324.000000"
 preserveAspectRatio="xMidYMid meet">
<metadata>
Created by potrace 1.14, written by Peter Selinger 2001-2017
</metadata>
<g transform="translate(0.000000,1324.000000) scale(0.100000,-0.100000)"
fill="#000000" stroke="none">
<path d="M5405 13218 c-2 -7 -20 -69 -39 -138 -19 -69 -40 -143 -46 -165 -32
-113 -42 -151 -45 -165 -2 -8 -4 -15 -5 -15 -1 0 -3 -7 -5 -15 -2 -8 -14 -49
-25 -90 -12 -41 -25 -88 -30 -105 -4 -16 -24 -86 -44 -155 -55 -191 -83 -292
-92 -325 -10 -42 -11 -45 -14 -47 -1 -2 -3 -10 -5 -18 -10 -41 -17 -66 -55
-200 -23 -80 -43 -153 -45 -163 -2 -9 -6 -21 -9 -25 -3 -5 -7 -19 -10 -33 -8
-38 -13 -59 -36 -134 -11 -38 -22 -79 -24 -90 -2 -11 -11 -42 -20 -70 -21 -68
-36 -129 -33 -136 1 -3 -4 -13 -12 -22 -7 -10 -11 -17 -7 -17 3 0 1 -11 -4
-25 -5 -14 -12 -36 -14 -48 -7 -33 -170 -615 -201 -717 -8 -25 -16 -56 -19
-70 -8 -38 -75 -273 -82 -290 -4 -8 -8 -22 -9 -30 -1 -8 -8 -35 -15 -60 -7
-25 -13 -49 -15 -55 -1 -5 -5 -17 -8 -25 -6 -15 -36 -123 -41 -150 -2 -12 -42
-15 -252 -16 -137 -1 -271 -5 -299 -8 -27 -3 -72 -8 -100 -10 -48 -5 -113 -14
-145 -20 -8 -2 -31 -6 -50 -10 -19 -3 -44 -8 -55 -10 -11 -1 -31 -6 -45 -9
-14 -4 -65 -16 -115 -28 -99 -22 -384 -116 -399 -130 -6 -5 -15 -9 -22 -9 -6
0 -38 -12 -70 -27 -33 -15 -61 -28 -64 -28 -27 -4 -69 -39 -74 -62 -8 -34 -15
-69 -22 -108 -3 -16 -10 -50 -15 -75 -6 -25 -13 -56 -15 -70 -11 -66 -14 -87
-19 -110 -11 -52 -33 -184 -40 -240 -3 -25 -8 -56 -10 -70 -4 -28 -16 -122
-20 -160 -2 -14 -6 -54 -10 -90 -12 -117 -15 -144 -21 -220 -3 -41 -7 -104
-10 -140 -10 -112 -12 -880 -3 -874 5 3 5 -6 0 -19 -5 -13 -6 -30 -1 -37 4 -7
7 -26 5 -42 -6 -41 9 -27 30 29 32 87 97 234 102 229 3 -2 -3 -20 -12 -39 -13
-28 -15 -53 -10 -123 7 -103 12 -155 19 -205 2 -19 7 -64 11 -100 3 -35 8 -77
12 -94 3 -16 7 -48 9 -70 1 -22 3 -40 4 -40 1 0 4 -13 6 -30 3 -16 9 -57 15
-90 5 -33 12 -76 15 -95 8 -55 64 -332 74 -365 5 -16 11 -41 14 -55 7 -43 66
-261 93 -343 14 -43 26 -84 27 -90 2 -7 6 -21 10 -32 5 -11 12 -31 16 -45 4
-14 12 -34 16 -45 4 -11 8 -22 9 -25 2 -10 46 -126 58 -152 7 -16 16 -28 22
-29 5 0 30 -1 55 -2 25 -1 48 -5 52 -11 3 -5 0 -26 -8 -48 -7 -21 -13 -39 -13
-41 1 -1 -4 -22 -11 -47 -7 -25 -13 -52 -15 -60 -2 -8 -10 -40 -19 -71 -9 -31
-19 -65 -21 -75 -2 -11 -16 -59 -30 -109 -14 -49 -27 -99 -30 -110 -2 -11 -9
-36 -14 -55 -11 -36 -6 -70 10 -70 5 0 40 -19 77 -41 37 -23 78 -49 92 -57 14
-9 25 -14 25 -12 0 1 26 -13 57 -34 31 -20 59 -36 62 -36 2 0 41 -23 85 -50
44 -28 85 -50 91 -50 5 0 10 -4 10 -10 0 -5 4 -10 10 -10 5 0 48 -23 96 -50
48 -28 91 -50 95 -50 5 0 9 -3 9 -7 0 -5 10 -13 23 -19 12 -6 99 -56 193 -111
94 -55 178 -103 185 -107 8 -3 32 -17 54 -31 22 -14 58 -35 80 -46 22 -12 42
-24 45 -28 5 -6 80 -48 117 -66 13 -5 23 -13 23 -17 0 -5 4 -8 9 -8 12 0 130
-70 137 -81 2 -5 -10 -15 -28 -22 -18 -8 -53 -23 -78 -35 -48 -22 -162 -61
-195 -68 -38 -7 -60 -12 -85 -18 -14 -4 -54 -10 -90 -15 -84 -12 -111 -18
-124 -31 -5 -5 -17 -10 -26 -10 -32 0 -138 -121 -154 -175 -4 -14 11 -5 49 30
65 61 132 88 224 90 41 1 79 8 100 19 44 23 220 84 263 91 18 3 40 8 48 10 35
10 81 15 182 21 l107 7 103 -61 c57 -33 119 -70 138 -81 19 -11 44 -25 55 -30
11 -5 36 -20 55 -33 19 -13 44 -27 54 -31 24 -9 17 -16 -64 -58 -36 -19 -68
-38 -71 -42 -3 -5 -9 -9 -12 -8 -4 0 -35 -13 -69 -28 -79 -35 -100 -43 -116
-47 -8 -1 -21 -6 -30 -10 -27 -11 -31 -13 -147 -43 -60 -16 -121 -31 -135 -33
-14 -1 -27 -6 -30 -9 -3 -4 -33 -9 -66 -12 -84 -8 -111 -15 -164 -40 -54 -26
-60 -30 -113 -82 -62 -60 -113 -136 -100 -149 3 -3 1 -6 -5 -6 -7 0 -12 -7
-12 -16 0 -10 21 6 54 39 84 87 207 138 318 132 42 -2 71 5 138 32 149 62 190
76 295 102 154 37 292 53 455 52 86 0 207 -7 220 -11 3 -1 12 -2 22 -1 9 1 32
-4 50 -12 28 -12 228 -126 378 -216 19 -11 42 -24 50 -28 39 -18 175 -105 182
-116 4 -6 13 -12 20 -13 16 -1 51 -15 58 -23 4 -5 27 -18 115 -65 11 -6 22
-13 25 -16 3 -3 16 -11 30 -18 27 -14 32 -17 126 -74 34 -21 64 -38 67 -38 9
0 112 -64 115 -72 2 -5 8 -8 13 -8 8 0 126 -66 204 -113 10 -7 37 -23 60 -37
22 -13 60 -35 85 -48 25 -14 73 -42 107 -63 34 -22 65 -39 68 -39 3 0 31 -16
61 -35 30 -19 56 -35 59 -35 2 0 46 -25 97 -56 51 -31 118 -70 148 -86 30 -17
66 -38 80 -48 14 -9 32 -20 40 -23 8 -4 33 -18 55 -32 22 -14 47 -28 55 -32 8
-4 43 -24 78 -45 34 -21 67 -38 72 -38 6 0 10 -4 10 -9 0 -5 11 -12 25 -15 14
-4 25 -11 25 -16 0 -6 4 -10 9 -10 13 0 155 -82 163 -94 4 -6 8 -7 8 -2 0 5 8
3 18 -6 9 -8 38 -25 65 -39 26 -13 47 -27 47 -31 0 -5 4 -8 10 -8 5 0 82 -43
171 -95 89 -52 163 -95 165 -95 2 0 32 -18 66 -40 35 -22 69 -40 76 -40 6 0
12 -4 12 -9 0 -5 10 -13 23 -17 12 -4 24 -9 27 -13 5 -7 25 -18 110 -64 30
-17 57 -34 58 -39 2 -4 8 -8 13 -8 5 0 39 -18 75 -40 36 -22 67 -40 69 -40 2
0 61 -34 131 -76 71 -42 145 -85 164 -95 19 -11 49 -28 65 -39 17 -11 37 -23
45 -27 8 -4 51 -28 95 -54 351 -207 909 -529 917 -529 7 0 6 5 -1 14 -7 8 -14
22 -16 32 -3 18 -44 123 -65 169 -5 11 -19 45 -30 75 -12 30 -30 75 -40 100
-11 25 -33 81 -51 125 -17 44 -40 99 -50 122 -10 24 -19 47 -19 51 0 5 -6 22
-14 38 -7 16 -30 72 -51 124 -20 52 -41 104 -46 115 -5 11 -37 92 -72 180 -35
88 -68 169 -72 180 -5 11 -9 22 -10 25 -1 3 -6 16 -12 30 -39 92 -152 379
-158 400 -4 14 -11 30 -15 35 -4 6 -25 53 -45 105 -20 52 -42 106 -48 120 -5
14 -11 28 -12 33 -2 4 -4 9 -5 12 -1 3 -3 8 -4 13 -1 4 -10 24 -19 46 -9 21
-17 40 -17 42 0 2 -9 23 -19 47 -10 23 -84 206 -164 407 -81 201 -152 379
-158 395 -7 17 -13 32 -14 35 -3 8 -15 39 -49 120 -17 41 -31 77 -32 80 0 3
-6 19 -13 35 -13 31 -39 95 -71 175 -9 25 -23 59 -30 75 -8 17 -14 32 -15 35
-1 3 -5 14 -10 25 -4 11 -27 67 -50 125 -23 58 -45 114 -50 125 -5 11 -9 22
-10 25 -4 11 -19 47 -36 89 -11 24 -19 50 -19 57 0 8 -5 14 -10 14 -6 0 -9 3
-8 7 3 7 -10 46 -32 98 -5 11 -19 45 -30 75 -12 30 -26 64 -31 75 -46 110 -71
172 -73 180 -1 6 -10 27 -19 49 -9 21 -17 45 -17 52 0 8 -4 14 -8 14 -5 0 -9
6 -9 13 -1 6 -30 84 -66 172 -35 88 -165 410 -287 715 -122 305 -228 569 -235
585 -28 66 -87 211 -88 221 -4 15 -76 195 -93 227 -8 16 -14 33 -14 38 0 5
-10 31 -21 57 -41 90 -49 110 -49 115 0 3 -5 18 -12 34 -6 15 -12 30 -13 33
-1 3 -6 16 -13 30 -6 14 -29 72 -52 130 -23 58 -48 119 -56 137 -8 17 -14 34
-14 38 0 4 -7 23 -16 43 -9 21 -19 46 -24 57 -4 11 -12 31 -18 45 -6 14 -30
72 -52 130 -23 58 -51 128 -62 155 -11 28 -24 59 -28 70 -5 11 -15 36 -24 57
-9 20 -16 38 -16 41 0 2 -8 22 -17 43 -9 22 -17 41 -18 44 -5 17 -23 61 -70
175 -7 17 -34 84 -59 150 -26 66 -51 129 -56 140 -5 11 -23 56 -40 100 -17 44
-36 88 -41 99 -6 10 -12 26 -14 35 -3 14 -82 212 -106 266 -9 21 -31 77 -34
85 -1 3 -9 22 -18 44 -9 21 -17 44 -17 50 0 7 -4 16 -8 21 -5 6 -14 26 -21 45
-7 19 -19 49 -26 65 -8 17 -26 62 -41 100 -15 39 -35 89 -45 112 -11 24 -19
46 -19 49 0 3 -6 20 -14 37 -12 28 -25 61 -31 77 -1 3 -5 14 -10 25 -4 11 -32
81 -62 155 -30 74 -58 144 -63 155 -4 11 -25 63 -45 115 -20 52 -42 106 -50
120 -7 14 -13 27 -13 30 -1 6 -8 27 -77 202 -31 79 -62 154 -70 168 -7 14 -14
28 -14 32 -3 15 -17 51 -291 728 -72 179 -132 330 -134 335 -2 6 -8 23 -14 38
-17 41 -53 129 -62 152 -11 28 -40 96 -50 120 -5 11 -37 90 -70 175 -34 85
-65 164 -70 175 -5 11 -16 38 -25 60 -9 22 -23 54 -30 70 -7 17 -25 62 -40
100 -15 39 -38 94 -51 123 -13 29 -24 58 -24 66 0 7 -3 15 -6 18 -5 6 -83 195
-177 428 -23 58 -46 108 -51 111 -5 4 -6 11 -2 17 3 6 2 13 -4 17 -6 3 -12 0
-15 -7z m59 -548 c10 -25 23 -58 30 -75 8 -16 26 -61 41 -100 15 -38 33 -83
40 -100 19 -45 76 -187 86 -212 5 -13 13 -33 19 -45 5 -13 38 -95 73 -183 35
-88 68 -169 72 -180 5 -11 7 -23 7 -27 -1 -5 3 -8 8 -8 5 0 9 -3 8 -7 -1 -9 6
-31 33 -90 10 -24 19 -45 19 -47 0 -3 47 -120 105 -262 58 -141 105 -263 105
-270 0 -8 5 -14 10 -14 6 0 10 -5 10 -11 0 -12 40 -117 73 -189 11 -25 30 -72
43 -105 27 -71 99 -246 121 -294 8 -18 16 -39 17 -45 1 -6 4 -15 8 -21 3 -5
34 -80 68 -165 34 -85 67 -168 75 -185 34 -79 97 -231 99 -240 2 -5 8 -21 13
-35 6 -14 37 -88 68 -165 31 -77 63 -153 70 -170 8 -16 33 -77 55 -135 47
-118 67 -166 82 -194 5 -10 11 -26 13 -35 2 -9 11 -34 21 -56 10 -22 18 -42
19 -45 1 -3 7 -17 13 -32 6 -16 32 -79 57 -140 25 -62 50 -122 55 -133 16 -36
72 -170 74 -180 2 -5 8 -21 13 -35 6 -14 23 -54 37 -90 28 -68 34 -83 59 -140
8 -19 37 -89 63 -155 26 -66 51 -124 55 -130 5 -5 9 -15 9 -22 0 -7 9 -32 19
-56 32 -70 132 -311 136 -327 2 -8 13 -37 26 -65 12 -27 23 -52 24 -55 5 -13
18 -48 30 -75 7 -16 43 -104 79 -195 37 -91 70 -174 75 -185 5 -11 16 -36 24
-55 9 -19 34 -82 57 -140 23 -58 48 -118 55 -135 8 -16 50 -120 95 -230 76
-189 126 -312 155 -380 7 -16 43 -104 79 -195 37 -91 71 -174 75 -185 11 -23
24 -58 25 -65 1 -3 4 -9 8 -15 3 -5 34 -80 68 -165 68 -170 78 -193 109 -262
11 -26 21 -51 21 -54 0 -3 6 -20 14 -37 8 -18 38 -90 67 -162 28 -71 59 -148
69 -170 10 -22 46 -109 80 -194 34 -85 67 -166 73 -180 5 -14 11 -28 12 -31 0
-3 6 -14 12 -25 5 -11 16 -38 23 -60 7 -22 16 -44 20 -50 6 -9 53 -123 56
-135 0 -3 5 -16 11 -30 6 -14 25 -61 43 -105 18 -44 44 -109 60 -145 26 -62
41 -99 45 -110 1 -3 5 -14 10 -25 4 -11 23 -57 42 -103 19 -45 39 -95 45 -110
6 -15 12 -29 13 -32 1 -3 9 -22 18 -44 9 -21 17 -40 17 -43 0 -2 11 -29 25
-59 14 -30 25 -60 25 -67 0 -7 4 -17 9 -23 4 -5 34 -74 66 -154 32 -80 66
-163 75 -185 10 -22 32 -76 50 -120 17 -44 39 -98 48 -120 9 -22 16 -43 14
-47 -1 -5 2 -8 8 -8 5 0 10 -6 10 -14 0 -7 9 -35 21 -62 11 -27 24 -58 29 -69
4 -11 17 -41 29 -67 12 -26 21 -52 21 -56 0 -5 6 -22 14 -38 18 -35 38 -85 41
-100 2 -6 10 -27 18 -45 9 -19 27 -63 42 -99 14 -36 30 -74 35 -85 16 -36 90
-217 137 -335 24 -63 51 -128 58 -145 8 -16 46 -109 85 -205 39 -96 82 -200
95 -231 14 -31 25 -60 25 -63 0 -4 9 -26 19 -49 10 -23 42 -100 71 -172 29
-71 63 -157 77 -190 14 -33 29 -70 34 -82 9 -24 12 -30 53 -126 l25 -57 -22
11 c-12 7 -274 156 -582 332 -308 176 -573 328 -590 337 -16 9 -122 69 -233
134 -112 64 -208 116 -212 116 -5 0 -10 3 -12 8 -1 4 -29 21 -60 37 -32 17
-58 33 -58 38 0 4 -5 7 -11 7 -5 0 -51 24 -102 53 -51 29 -101 59 -112 65 -11
6 -63 36 -117 67 -53 30 -101 55 -106 55 -6 0 -12 4 -14 8 -1 5 -34 26 -73 47
-38 21 -79 43 -90 49 -11 6 -22 13 -25 16 -3 3 -18 12 -35 20 -16 8 -32 17
-35 20 -3 3 -25 16 -50 29 -25 13 -53 31 -64 40 -10 9 -21 15 -25 15 -6 -2
-118 61 -183 102 -21 13 -40 24 -42 24 -5 0 -259 145 -296 168 -14 9 -27 17
-30 17 -9 1 -105 58 -122 73 -10 8 -18 11 -18 7 0 -4 -8 -1 -18 8 -9 8 -28 20
-42 26 -14 6 -38 20 -55 31 -16 11 -47 27 -67 37 -21 10 -38 21 -38 25 0 5 -4
8 -9 8 -9 0 -106 53 -161 88 -14 9 -27 17 -30 17 -9 1 -105 58 -122 73 -10 8
-18 11 -18 6 0 -5 -4 -4 -8 1 -4 6 -18 16 -32 23 -40 20 -67 37 -85 52 -10 8
-21 14 -24 13 -3 0 -46 23 -96 52 -49 29 -108 62 -130 73 -61 31 -74 44 -80
81 -13 76 -111 198 -198 246 -26 14 -93 42 -150 61 -91 32 -215 86 -242 107
-5 4 -21 15 -34 25 l-24 19 46 96 c26 52 52 101 59 109 7 7 21 26 31 41 57 88
268 294 426 414 31 23 61 46 66 51 11 9 56 41 175 123 91 63 93 63 153 27 28
-18 54 -35 57 -39 3 -3 15 -9 28 -13 12 -4 22 -12 22 -17 0 -5 5 -9 10 -9 10
0 220 -137 230 -150 3 -3 12 -9 20 -12 14 -6 179 -123 207 -148 7 -5 16 -10
22 -10 5 0 11 -4 13 -8 2 -5 30 -28 63 -53 85 -62 81 -59 135 -114 28 -27 50
-53 50 -58 0 -4 5 -5 10 -2 6 3 10 2 10 -2 0 -5 28 -38 63 -74 34 -36 136
-144 227 -239 91 -95 197 -206 236 -247 39 -40 70 -73 69 -73 -1 0 35 -38 79
-84 45 -46 146 -152 226 -236 80 -84 172 -181 205 -215 67 -69 302 -317 381
-401 28 -30 53 -54 57 -54 3 0 -3 30 -14 68 -11 37 -25 83 -30 102 -14 48 -49
162 -56 180 -4 8 -7 18 -8 23 -2 4 -3 8 -5 10 -1 1 -3 10 -5 19 -3 17 -80 257
-92 288 -4 8 -7 18 -8 23 -2 4 -3 8 -5 10 -1 1 -3 9 -5 17 -2 8 -29 87 -60
175 -31 88 -60 171 -65 185 -20 57 -70 192 -111 295 -24 61 -44 115 -45 121
-1 5 -13 36 -28 67 -14 32 -26 63 -26 70 0 7 -5 18 -11 24 -6 6 -12 17 -13 24
-2 8 -8 28 -15 44 -29 71 -85 203 -103 245 -12 25 -33 74 -48 110 -38 90 -189
418 -212 458 -10 18 -18 39 -18 46 0 8 -3 16 -7 18 -5 2 -23 35 -41 73 -18 39
-37 77 -42 85 -5 8 -26 49 -48 90 -99 192 -172 326 -239 438 -24 41 -43 76
-43 78 0 2 -11 21 -23 42 -13 20 -32 51 -43 67 -10 17 -19 32 -19 35 -1 3 -20
34 -42 70 -23 36 -63 99 -89 140 -95 150 -247 375 -255 378 -5 2 -9 9 -9 16 0
7 -9 21 -20 31 -11 10 -20 24 -20 32 0 7 -4 13 -8 13 -4 0 -15 12 -24 28 -9
15 -26 38 -37 52 -11 14 -38 50 -60 80 -23 30 -50 66 -61 80 -10 14 -57 72
-102 130 -85 108 -101 128 -129 158 -8 9 -37 44 -65 77 -27 33 -53 65 -59 71
-5 6 -35 40 -66 75 -213 241 -558 577 -794 774 -26 22 -53 45 -59 50 -28 26
-170 138 -261 205 -55 41 -104 79 -110 83 -5 4 -41 30 -80 57 -38 27 -75 54
-82 60 -7 5 -15 10 -18 10 -8 0 -69 44 -73 53 -2 4 -7 7 -12 7 -5 0 -41 22
-82 48 -40 27 -107 68 -148 92 -41 25 -77 47 -80 50 -13 14 -164 90 -179 90
-19 0 -12 19 11 31 13 7 28 17 34 23 6 6 22 18 34 26 12 8 28 21 36 28 7 6 18
12 24 12 6 0 13 7 16 15 4 8 10 15 15 15 5 0 46 24 92 53 163 107 364 212 552
291 61 26 119 50 130 55 11 5 36 14 55 21 19 7 44 16 55 21 85 38 409 127 452
124 26 -1 31 1 22 12 -6 7 -18 13 -25 13 -8 0 -14 4 -14 8 0 4 -27 24 -60 43
-33 18 -60 37 -60 42 0 4 -4 7 -10 7 -5 0 -31 13 -57 28 -93 55 -303 158 -398
195 -174 67 -401 140 -437 139 -10 -1 -18 4 -18 9 0 6 -4 8 -9 5 -4 -3 -34 1
-66 9 -31 8 -61 13 -66 9 -5 -3 -9 -1 -9 3 0 5 -8 9 -17 9 -10 1 -31 4 -48 7
-16 3 -50 9 -75 12 -89 12 -86 3 -50 120 11 39 28 95 36 125 9 30 22 74 30 97
7 23 15 52 18 65 3 13 19 68 36 123 17 55 33 109 35 121 3 11 16 56 30 100 14
43 25 86 25 96 0 9 5 20 10 23 6 4 9 12 8 18 -1 7 8 44 20 82 11 39 39 131 61
205 22 74 65 221 96 327 31 106 58 198 59 205 1 7 4 18 7 23 4 6 21 64 39 130
17 66 36 129 40 140 5 11 18 56 30 100 12 44 27 96 33 115 6 19 12 40 13 45 2
6 10 35 19 65 9 30 17 60 19 65 2 6 6 24 10 40 4 17 10 37 13 45 8 19 8 22 32
105 10 39 36 126 56 195 20 69 38 130 39 135 1 6 10 37 20 70 10 33 19 65 21
70 13 58 30 103 36 97 3 -4 14 -27 23 -52z m-2791 -5385 c-3 -9 -8 -14 -10
-11 -3 3 -2 9 2 15 9 16 15 13 8 -4z m662 -2119 c28 -3 61 -7 75 -10 14 -3 45
-7 70 -10 25 -3 68 -10 97 -15 29 -6 74 -13 100 -17 26 -3 51 -8 54 -10 4 -2
24 -6 45 -10 33 -5 127 -25 189 -39 24 -6 61 -14 95 -21 14 -3 43 -10 65 -16
22 -5 48 -12 58 -14 10 -2 27 -6 37 -9 10 -3 27 -8 37 -10 10 -2 38 -8 63 -14
25 -7 52 -13 60 -15 8 -2 42 -11 75 -21 51 -14 125 -34 185 -50 8 -2 15 -4 15
-5 0 -2 12 -5 50 -13 11 -2 27 -7 35 -10 8 -3 49 -16 90 -28 41 -12 118 -35
170 -51 52 -16 111 -34 130 -39 19 -6 44 -15 55 -20 11 -5 29 -11 40 -12 11
-2 29 -7 40 -11 11 -5 36 -14 55 -21 25 -9 34 -19 32 -32 -1 -10 -4 -32 -6
-50 -4 -38 -25 -132 -34 -153 -3 -8 -6 -22 -8 -30 -4 -33 -68 -180 -115 -266
-114 -206 -277 -383 -469 -509 -79 -51 -86 -54 -106 -40 -13 8 -38 23 -56 33
-18 11 -57 33 -86 51 -29 17 -54 31 -56 31 -2 0 -43 23 -92 51 -123 72 -152
88 -204 117 -25 13 -49 28 -55 32 -5 4 -30 19 -55 32 -128 71 -338 192 -362
209 -15 10 -34 19 -43 19 -8 0 -15 4 -15 9 0 5 -8 11 -17 14 -17 6 -81 42
-130 73 -12 7 -37 22 -55 32 -18 10 -55 31 -83 47 -27 15 -75 41 -105 58 -30
17 -57 33 -60 36 -3 3 -25 17 -50 30 -80 43 -81 44 -60 107 11 30 17 54 14 54
-3 0 -2 6 3 13 4 6 8 17 9 22 1 6 23 77 48 158 25 81 48 163 52 182 3 19 10
35 15 35 5 0 8 3 7 8 -2 7 22 112 28 124 2 3 21 4 42 2 20 -2 60 -6 87 -8z
m2443 -645 c9 -5 64 -26 122 -47 153 -54 141 -43 124 -116 -28 -121 -76 -254
-136 -378 -33 -69 -67 -133 -76 -142 -8 -10 -12 -18 -8 -18 4 0 2 -6 -4 -12
-6 -7 -36 -49 -67 -93 -118 -168 -259 -310 -445 -448 -43 -32 -46 -31 -161 37
-43 25 -80 46 -82 46 -3 0 -34 18 -70 40 -36 22 -69 40 -73 40 -4 0 -16 8 -27
16 -18 14 -15 15 45 8 82 -9 87 -9 135 -20 22 -4 42 -9 45 -9 3 -1 30 -7 61
-14 55 -13 58 -13 83 11 l27 25 -43 13 c-24 8 -45 14 -48 15 -3 1 -22 9 -44
18 -21 9 -42 17 -47 17 -5 0 -9 4 -9 8 0 4 -15 13 -34 20 -18 7 -40 20 -49 30
-14 15 -14 21 4 57 11 22 19 41 19 43 -3 15 126 229 156 259 8 8 14 18 14 22
0 11 187 200 228 231 19 14 39 30 46 37 27 25 144 96 222 135 70 34 82 44 78
62 -2 12 -7 37 -10 56 -3 19 -7 41 -9 48 -5 14 8 16 33 3z m2 -1577 c0 3 24
-3 53 -14 28 -11 60 -20 70 -20 9 0 46 -13 81 -29 65 -29 176 -126 190 -165 6
-17 5 -18 -18 -2 -26 16 -50 30 -151 86 -33 18 -71 40 -85 49 -14 10 -46 28
-72 42 -27 13 -48 27 -48 30 0 4 -11 10 -25 13 -14 4 -25 11 -25 17 0 8 5 7
15 -1 8 -7 15 -10 15 -6z"/>
</g>
</svg>
