<?xml version="1.0" encoding="UTF-8"?><svg xmlns="http://www.w3.org/2000/svg" xmlns:xlink="http://www.w3.org/1999/xlink" viewBox="0 0 205.32 330.72"><defs><style>.l{fill:url(#e);}.m{fill:url(#d);}.n{fill:url(#g);}.o{fill:url(#f);}.p{fill:url(#i);}.q{fill:url(#h);}.r{fill:url(#k);}.s{fill:url(#j);}.t{fill:#f40000;}</style><linearGradient id="d" x1="82.41" y1="1465.4" x2="32.25" y2="1569.75" gradientTransform="translate(0 -1282.36)" gradientUnits="userSpaceOnUse"><stop offset="0" stop-color="#5c6971"/><stop offset=".03" stop-color="#465056"/><stop offset=".06" stop-color="#2d3337"/><stop offset=".1" stop-color="#191d1f"/><stop offset=".14" stop-color="#0b0d0e"/><stop offset=".18" stop-color="#030303"/><stop offset=".24" stop-color="#000"/><stop offset=".38" stop-color="#030404"/><stop offset=".53" stop-color="#0d0e0f"/><stop offset=".67" stop-color="#1c2023"/><stop offset=".81" stop-color="#323a3e"/><stop offset=".94" stop-color="#4f5a61"/><stop offset="1" stop-color="#5c6971"/></linearGradient><linearGradient id="e" x1="10.74" y1="1456.51" x2="169.25" y2="1554" gradientTransform="translate(0 -1282.36)" gradientUnits="userSpaceOnUse"><stop offset=".14" stop-color="#000"/><stop offset=".35" stop-color="#272d30"/><stop offset=".53" stop-color="#444e54"/><stop offset=".68" stop-color="#566269"/><stop offset=".78" stop-color="#5c6971"/></linearGradient><linearGradient id="f" x1="42.16" y1="1433.17" x2="313" y2="1717.79" gradientTransform="translate(0 -1282.36)" gradientUnits="userSpaceOnUse"><stop offset=".25" stop-color="#000"/><stop offset=".29" stop-color="#070809"/><stop offset=".36" stop-color="#1b1f21"/><stop offset=".45" stop-color="#3b4349"/><stop offset=".52" stop-color="#5c6971"/><stop offset=".54" stop-color="#59656c"/><stop offset=".57" stop-color="#50595f"/><stop offset=".59" stop-color="#414648"/><stop offset=".61" stop-color="#333"/><stop offset=".63" stop-color="#404446"/><stop offset=".67" stop-color="#4f585e"/><stop offset=".71" stop-color="#59656c"/><stop offset=".74" stop-color="#5c6971"/></linearGradient><linearGradient id="g" x1="14.14" y1="1462.2" x2="279.95" y2="1741.53" gradientTransform="translate(0 -1282.36)" gradientUnits="userSpaceOnUse"><stop offset=".29" stop-color="#000"/><stop offset=".31" stop-color="#171a1c"/><stop offset=".35" stop-color="#3c454a"/><stop offset=".38" stop-color="#535f66"/><stop offset=".39" stop-color="#5c6971"/><stop offset=".42" stop-color="#59656c"/><stop offset=".45" stop-color="#50595f"/><stop offset=".48" stop-color="#414648"/><stop offset=".51" stop-color="#333"/><stop offset=".55" stop-color="#404446"/><stop offset=".62" stop-color="#4f585e"/><stop offset=".69" stop-color="#59656c"/><stop offset=".74" stop-color="#5c6971"/></linearGradient><linearGradient id="h" x1="22.7" y1="1545.39" x2="247.26" y2="1384.16" gradientTransform="translate(0 -1282.36)" gradientUnits="userSpaceOnUse"><stop offset=".3" stop-color="#000"/><stop offset=".33" stop-color="#171a1c"/><stop offset=".38" stop-color="#3c454a"/><stop offset=".42" stop-color="#535f66"/><stop offset=".44" stop-color="#5c6971"/><stop offset=".68" stop-color="#5c6971"/><stop offset=".83" stop-color="#333"/></linearGradient><linearGradient id="i" x1="-42.15" y1="1436.67" x2="129.98" y2="1484.81" gradientTransform="translate(0 -1282.36)" gradientUnits="userSpaceOnUse"><stop offset=".07" stop-color="#5c6971"/><stop offset=".09" stop-color="#59656d"/><stop offset=".1" stop-color="#4f5a61"/><stop offset=".12" stop-color="#3f484d"/><stop offset=".14" stop-color="#282e31"/><stop offset=".16" stop-color="#0b0c0d"/><stop offset=".17" stop-color="#000"/><stop offset=".21" stop-color="#040505"/><stop offset=".27" stop-color="#101214"/><stop offset=".33" stop-color="#24292c"/><stop offset=".39" stop-color="#3f484e"/><stop offset=".45" stop-color="#5c6971"/></linearGradient><linearGradient id="j" x1="17.29" y1="1377.6" x2="165.68" y2="1640.19" gradientTransform="translate(0 -1282.36)" gradientUnits="userSpaceOnUse"><stop offset=".09" stop-color="#000"/><stop offset=".1" stop-color="#101214"/><stop offset=".14" stop-color="#2b3135"/><stop offset=".17" stop-color="#414a4f"/><stop offset=".21" stop-color="#505b62"/><stop offset=".24" stop-color="#59666d"/><stop offset=".28" stop-color="#5c6971"/><stop offset=".31" stop-color="#465056"/><stop offset=".34" stop-color="#2d3337"/><stop offset=".38" stop-color="#191d1f"/><stop offset=".42" stop-color="#0b0d0e"/><stop offset=".46" stop-color="#030303"/><stop offset=".51" stop-color="#000"/></linearGradient><linearGradient id="k" x1="179.98" y1="1314.62" x2="-203.9" y2="1521.75" xlink:href="#h"/></defs><g id="a"/><g id="b"><g id="c"><path class="t" d="M12.51,218.04l191.19,109.28-1.53,1.33-65.69-160.83-32.92-80.38c-10.95-26.79-21.91-53.62-32.67-80.45l3.84-.21c-5,17.56-10.08,35.1-15.25,52.63l-15.42,52.68-15.68,52.83-15.87,53.12h0Zm-.37,.15l14.34-52.83,14.56-53.11,14.85-53.27c4.93-17.77,9.91-35.54,14.95-53.32l1.62-5.66,2.23,5.46c10.95,26.8,21.79,53.65,32.51,80.54l32.29,80.63,64.67,161.19,1.16,2.9-2.69-1.57L12.14,218.19h0Z"/><path class="m" d="M80.56,216.73c.31,1.38,.56,2.79,.77,4.22v.12c-1.38,.58-2.71,1.25-4,2h0c-6.78,3.9-12.1,9.91-15.15,17.12-.17,.39-.33,.78-.48,1.17,1.88,1.28,3.94,2.26,6.12,2.91h0c.37,.12,.74,.21,1.12,.31h0l-.26,.26h0c-.06,.09-.11,.18-.15,.27h0l-.14,.1c-.32,.22-.64,.45-.94,.69l-.34-.11h0c-1.19-.36-2.41-.66-3.63-.9h0c-.2-.05-.42-.08-.64-.12-.71-.12-1.42-.23-2.14-.32-2.99-.32-6.02-.28-9,.13-2.51,.35-4.97,.97-7.35,1.84l-.17,.06c-1.15,.43-2.28,.91-3.38,1.46-2.64-.4-5.31,.46-7.21,2.33-.48,.47-.91,1-1.27,1.58,.47-1.81,1.53-3.42,3-4.57,.77-.61,1.65-1.07,2.58-1.37,.34-.12,.69-.21,1.05-.27,.41-.04,.82-.09,1.23-.15h.31c3.77-.52,7.44-1.64,10.85-3.33,1.09-.53,2.15-1.12,3.18-1.77,1.13-.7,2.21-1.47,3.25-2.29l.17-.13c3.64-2.92,6.68-6.52,8.94-10.61,.99-1.78,1.83-3.64,2.5-5.57,1.01-2.91,1.65-5.93,1.89-9-2.26-.77,10.62,4.52,9.29,3.94h0Z"/><path class="l" d="M90.95,220.15c-.14,.32-.28,.64-.41,1-20.87-8.07-56.25-19.31-77.1-20.05,1.49-.49,3-1,4.42-1.57l-.1-.37c11.5-4.95,23.86-17.4,32.47-26,12.6,11.74,27.01,21.39,42.66,28.58,1.7,4.76-.86,16.4-1.94,18.41Z"/><path class="o" d="M161.24,286.94h0c-16.29-23.61-38-43.09-62.44-57.86,1.79-1.09,3-1.69,3.18-1.6-.82-7.27,0-17.94-2.81-24.57,29.05,11.19,38.86,27.8,62.07,84.03Z"/><path class="n" d="M102.3,227.59c-.19-.09-1.39,.51-3.18,1.6-5.38,3.29-16.07,11-20.38,18.08l-.06,.1c-.33,.54-.63,1.09-.89,1.66-.37,.83-.74,1.68-1.06,2.53l-.09,.22c2.42,1.65,5.08,2.91,7.89,3.76h0c.4,.12,.81,.24,1.22,.33l.29,.08h0c.64,.23,1.26,.52,1.85,.87,1.82,1.03,3.31,2.58,4.27,4.44,.57,1.1,.96,2.3,1.14,3.53,.05,.41,.08,.81,.1,1.21h0c-.31-.13-.55-.4-.65-.72-.82-2.57-2.56-4.74-4.89-6.09-1.1-.64-2.3-1.09-3.55-1.31h0l-.71-.23h0c-.91-.28-1.83-.53-2.77-.75h0c-.91-.22-1.83-.41-2.76-.57h0c-.91-.16-1.84-.3-2.77-.4-1.11-.13-2.23-.21-3.36-.26h0c-2.78-.11-5.56,.03-8.32,.42-1.84,.26-3.66,.63-5.45,1.11h0c-1.37,.36-2.72,.78-4,1.26h0l-.22,.09h0c-.6,.22-1.19,.45-1.78,.69-.88,.38-1.75,.77-2.6,1.19h0c-3.41-.53-6.87,.58-9.33,3-.63,.62-1.18,1.31-1.64,2.06,.93-3.62,3.63-6.52,7.18-7.7h0c.44-.15,.89-.26,1.35-.35h0c.51,0,1-.11,1.53-.18h0c.52-.03,1.04-.03,1.56,0l-.23-.23c1.18-.19,2.33-.42,3.47-.7h0c4.13-.98,8.1-2.53,11.8-4.6,1.23-.68,2.42-1.42,3.57-2.22,.08-.04,.15-.09,.22-.15,.8-.54,1.57-1.11,2.31-1.71l.28-.22c.49-.4,1-.81,1.47-1.24h0c6.33-5.52,11.04-12.64,13.65-20.62,.44-1.36,.82-2.74,1.13-4.13,.03-.1,.06-.21,.07-.32h0c1.14-5.23,.75-17.41,.62-18.1,2.93,1.21,5.11,2,7.93,3.42,.45,1.06,1.21,2.26,1.61,3.36,1.63,4.43,2.84,9,3.61,13.65,.11,.64,.2,1.28,.3,1.93v.16c.11,.69,.19,1.37,.27,2.05h0Z"/><path class="q" d="M161.23,286.93h0s-47-67.08-72.14-88.65c-26.19-10.94-38.3-20.46-62.1-50.22-.57-.7,14.82-28.75,22.28-24.59,57.1,31.82,90.95,92.21,111.96,163.46Z"/><path class="p" d="M50.23,173.14c-6.88,8.33-20,20.23-29.8,25-3.78-14.84-.09-37.29,6.3-50.89,.41,.81,.91,1.59,1.48,2.3,7.21,7.64,15.56,15.27,22.02,23.59Z"/><polygon points="161.23 286.93 108.91 232.02 27 148.07 120.69 220.62 161.23 286.93"/><path class="s" d="M20.45,198.19c-2.22,1.14-4.52,2.11-6.89,2.9-6.27-15.68-9.35-32.65-10.62-49.51,11.92-32.46,49-54.9,83.42-46.57-.09-.07-77.47,14.26-65.91,93.18h0Z"/><path class="r" d="M86.89,105.38c-2.04-.29-4.1-.5-6.18-.63h-.13c-1.68-.11-3.38-.16-5.1-.16-4.74,0-9.47,.41-14.14,1.23-.14,.11-.34,.15-.51,.09h0c-2.05,.38-4.07,.83-6.06,1.36-15.49,4.09-29.39,12.76-39.88,24.86-1,1.14-1.93,2.3-2.83,3.49-4.99,6.47-8.92,13.68-11.64,21.38-.09-1.38-.17-2.77-.22-4.16H.2C.07,149.94,0,147.01,0,144.07c-.02-15.08,1.66-30.11,5-44.81,0-.16,.07-.32,.11-.49h0l.12-.05,.61-.3c10.8-5.12,22.6-7.77,34.55-7.75,1.57,0,3.12,0,4.66,.14h0c2.4-.02,4.8,.22,7.15,.69h0c5,.74,9.92,1.94,14.69,3.6,7.12,2.46,13.85,5.92,20,10.28h0Z"/></g></g></svg>