<svg id="Layer_1" data-name="Layer 1" xmlns="http://www.w3.org/2000/svg" xmlns:xlink="http://www.w3.org/1999/xlink" viewBox="0 0 205.32 330.72"><defs><style>.cls-1{fill:#f40000;}.cls-2{fill:url(#linear-gradient);}.cls-3{fill:url(#linear-gradient-2);}.cls-4{fill:url(#linear-gradient-3);}.cls-5{fill:url(#linear-gradient-4);}.cls-6{fill:url(#linear-gradient-5);}.cls-7{fill:url(#linear-gradient-6);}.cls-8{fill:red;}.cls-9{fill:url(#linear-gradient-7);}.cls-10{fill:url(#linear-gradient-8);}</style><linearGradient id="linear-gradient" x1="82.41" y1="218.38" x2="32.25" y2="114.03" gradientTransform="matrix(1, 0, 0, -1, 0, 401.42)" gradientUnits="userSpaceOnUse"><stop offset="0" stop-color="#5c6971"/><stop offset="0.03" stop-color="#465056"/><stop offset="0.06" stop-color="#2d3337"/><stop offset="0.1" stop-color="#191d1f"/><stop offset="0.14" stop-color="#0b0d0e"/><stop offset="0.18" stop-color="#030303"/><stop offset="0.24"/><stop offset="0.38" stop-color="#030404"/><stop offset="0.53" stop-color="#0d0e0f"/><stop offset="0.67" stop-color="#1c2023"/><stop offset="0.81" stop-color="#323a3e"/><stop offset="0.94" stop-color="#4f5a61"/><stop offset="1" stop-color="#5c6971"/></linearGradient><linearGradient id="linear-gradient-2" x1="10.74" y1="227.27" x2="169.25" y2="129.78" gradientTransform="matrix(1, 0, 0, -1, 0, 401.42)" gradientUnits="userSpaceOnUse"><stop offset="0.14"/><stop offset="0.35" stop-color="#272d30"/><stop offset="0.53" stop-color="#444e54"/><stop offset="0.68" stop-color="#566269"/><stop offset="0.78" stop-color="#5c6971"/></linearGradient><linearGradient id="linear-gradient-3" x1="42.16" y1="250.61" x2="313" y2="-34.01" gradientTransform="matrix(1, 0, 0, -1, 0, 401.42)" gradientUnits="userSpaceOnUse"><stop offset="0.25"/><stop offset="0.29" stop-color="#070809"/><stop offset="0.36" stop-color="#1b1f21"/><stop offset="0.45" stop-color="#3b4349"/><stop offset="0.52" stop-color="#5c6971"/><stop offset="0.54" stop-color="#59656c"/><stop offset="0.57" stop-color="#50595f"/><stop offset="0.59" stop-color="#414648"/><stop offset="0.61" stop-color="#333"/><stop offset="0.63" stop-color="#404446"/><stop offset="0.67" stop-color="#4f585e"/><stop offset="0.71" stop-color="#59656c"/><stop offset="0.74" stop-color="#5c6971"/></linearGradient><linearGradient id="linear-gradient-4" x1="14.14" y1="221.58" x2="279.95" y2="-57.75" gradientTransform="matrix(1, 0, 0, -1, 0, 401.42)" gradientUnits="userSpaceOnUse"><stop offset="0.29"/><stop offset="0.31" stop-color="#171a1c"/><stop offset="0.35" stop-color="#3c454a"/><stop offset="0.38" stop-color="#535f66"/><stop offset="0.39" stop-color="#5c6971"/><stop offset="0.42" stop-color="#59656c"/><stop offset="0.45" stop-color="#50595f"/><stop offset="0.48" stop-color="#414648"/><stop offset="0.51" stop-color="#333"/><stop offset="0.55" stop-color="#404446"/><stop offset="0.62" stop-color="#4f585e"/><stop offset="0.69" stop-color="#59656c"/><stop offset="0.74" stop-color="#5c6971"/></linearGradient><linearGradient id="linear-gradient-5" x1="22.7" y1="138.39" x2="247.26" y2="299.62" gradientTransform="matrix(1, 0, 0, -1, 0, 401.42)" gradientUnits="userSpaceOnUse"><stop offset="0.3"/><stop offset="0.33" stop-color="#171a1c"/><stop offset="0.38" stop-color="#3c454a"/><stop offset="0.42" stop-color="#535f66"/><stop offset="0.44" stop-color="#5c6971"/><stop offset="0.68" stop-color="#5c6971"/><stop offset="0.83" stop-color="#333"/></linearGradient><linearGradient id="linear-gradient-6" x1="-42.15" y1="247.11" x2="129.98" y2="198.97" gradientTransform="matrix(1, 0, 0, -1, 0, 401.42)" gradientUnits="userSpaceOnUse"><stop offset="0.07" stop-color="#5c6971"/><stop offset="0.09" stop-color="#59656d"/><stop offset="0.1" stop-color="#4f5a61"/><stop offset="0.12" stop-color="#3f484d"/><stop offset="0.14" stop-color="#282e31"/><stop offset="0.16" stop-color="#0b0c0d"/><stop offset="0.17"/><stop offset="0.21" stop-color="#040505"/><stop offset="0.27" stop-color="#101214"/><stop offset="0.33" stop-color="#24292c"/><stop offset="0.39" stop-color="#3f484e"/><stop offset="0.45" stop-color="#5c6971"/></linearGradient><linearGradient id="linear-gradient-7" x1="17.29" y1="306.18" x2="165.68" y2="43.59" gradientTransform="matrix(1, 0, 0, -1, 0, 401.42)" gradientUnits="userSpaceOnUse"><stop offset="0.09"/><stop offset="0.1" stop-color="#101214"/><stop offset="0.14" stop-color="#2b3135"/><stop offset="0.17" stop-color="#414a4f"/><stop offset="0.21" stop-color="#505b62"/><stop offset="0.24" stop-color="#59666d"/><stop offset="0.28" stop-color="#5c6971"/><stop offset="0.31" stop-color="#465056"/><stop offset="0.34" stop-color="#2d3337"/><stop offset="0.38" stop-color="#191d1f"/><stop offset="0.42" stop-color="#0b0d0e"/><stop offset="0.46" stop-color="#030303"/><stop offset="0.51"/></linearGradient><linearGradient id="linear-gradient-8" x1="179.98" y1="369.16" x2="-203.9" y2="162.03" xlink:href="#linear-gradient-5"/></defs><path class="cls-1" d="M12.51,218,203.7,327.32l-1.53,1.33L136.48,167.82,103.56,87.44C92.61,60.65,81.65,33.82,70.89,7l3.84-.21q-7.5,26.34-15.25,52.63L44.06,112.09,28.38,164.92Zm-.37.15,14.34-52.83L41,112.25,55.89,59q7.39-26.65,15-53.32L72.46,0l2.23,5.46Q91.12,45.66,107.2,86l32.29,80.63,64.67,161.19,1.16,2.9-2.69-1.57Z"/><path class="cls-2" d="M80.56,216.73c.31,1.38.56,2.79.77,4.22v.12a34.7,34.7,0,0,0-4,2h0a35.87,35.87,0,0,0-15.15,17.12q-.26.59-.48,1.17a22.07,22.07,0,0,0,6.12,2.91h0c.37.12.74.21,1.12.31h0l-.26.26h0a1.82,1.82,0,0,0-.15.27h0l-.14.1c-.32.22-.64.45-.94.69l-.34-.11h0c-1.19-.36-2.41-.66-3.63-.9h0c-.2,0-.42-.08-.64-.12-.71-.12-1.42-.23-2.14-.32a37.13,37.13,0,0,0-9,.13,35.8,35.8,0,0,0-7.35,1.84l-.17.06a34.79,34.79,0,0,0-3.38,1.46,8.5,8.5,0,0,0-8.48,3.91,8.54,8.54,0,0,1,3-4.57,8.22,8.22,0,0,1,2.58-1.37,6.22,6.22,0,0,1,1.05-.27q.61-.06,1.23-.15h.31a35.31,35.31,0,0,0,10.85-3.33,33,33,0,0,0,3.18-1.77,35.17,35.17,0,0,0,3.25-2.29l.17-.13a35.8,35.8,0,0,0,8.94-10.61,35.23,35.23,0,0,0,2.5-5.57,36,36,0,0,0,1.89-9C69,212,81.89,217.31,80.56,216.73Z"/><path class="cls-3" d="M91,220.15c-.14.32-.28.64-.41,1-20.87-8.07-56.25-19.31-77.1-20.05,1.49-.49,3-1,4.42-1.57l-.1-.37c11.5-4.95,23.86-17.4,32.47-26a161.48,161.48,0,0,0,42.66,28.58C94.59,206.5,92,218.14,91,220.15Z"/><path class="cls-4" d="M161.24,286.94h0c-16.29-23.61-38-43.09-62.44-57.86,1.79-1.09,3-1.69,3.18-1.6-.82-7.27,0-17.94-2.81-24.57C128.22,214.1,138,230.71,161.24,286.94Z"/><path class="cls-5" d="M102.3,227.59c-.19-.09-1.39.51-3.18,1.6-5.38,3.29-16.07,11-20.38,18.08l-.06.1a15.6,15.6,0,0,0-.89,1.66c-.37.83-.74,1.68-1.06,2.53l-.09.22a28.78,28.78,0,0,0,7.89,3.76h0c.4.12.81.24,1.22.33L86,256h0a11.34,11.34,0,0,1,6.12,5.31,11.24,11.24,0,0,1,1.14,3.53c0,.41.08.81.1,1.21h0a1.16,1.16,0,0,1-.65-.72,10.9,10.9,0,0,0-8.44-7.4h0l-.71-.23h0c-.91-.28-1.83-.53-2.77-.75h0q-1.36-.33-2.76-.57h0c-.91-.16-1.84-.3-2.77-.4-1.11-.13-2.23-.21-3.36-.26h0a46.33,46.33,0,0,0-8.32.42,45.76,45.76,0,0,0-5.45,1.11h0a41.46,41.46,0,0,0-4,1.26h0l-.22.09h0c-.6.22-1.19.45-1.78.69-.88.38-1.75.77-2.6,1.19h0a10.9,10.9,0,0,0-11,5.06,11,11,0,0,1,7.18-7.7h0a10.29,10.29,0,0,1,1.35-.35h0a11.79,11.79,0,0,0,1.53-.18h0a10.16,10.16,0,0,1,1.56,0L50,257c1.18-.19,2.33-.42,3.47-.7h0a45.85,45.85,0,0,0,11.8-4.6,40.89,40.89,0,0,0,3.57-2.22,1.07,1.07,0,0,0,.22-.15q1.2-.81,2.31-1.71l.28-.22c.49-.4,1-.81,1.47-1.24h0a46.54,46.54,0,0,0,13.65-20.62c.44-1.36.82-2.74,1.13-4.13a1.65,1.65,0,0,0,.07-.32h0c1.14-5.23.75-17.41.62-18.1,2.93,1.21,5.11,2,7.93,3.42.45,1.06,1.21,2.26,1.61,3.36a75,75,0,0,1,3.61,13.65c.11.64.2,1.28.3,1.93v.16C102.14,226.23,102.22,226.91,102.3,227.59Z"/><path class="cls-6" d="M161.23,286.93h0s-47-67.08-72.14-88.65C62.9,187.34,50.79,177.82,27,148.06c-.57-.7,14.82-28.75,22.28-24.59C106.37,155.29,140.22,215.68,161.23,286.93Z"/><path class="cls-7" d="M50.23,173.14c-6.88,8.33-20,20.23-29.8,25-3.78-14.84-.09-37.29,6.3-50.89a13.25,13.25,0,0,0,1.48,2.3C35.42,157.19,43.77,164.82,50.23,173.14Z"/><polygon class="cls-8" points="161.23 286.93 108.91 232.02 27 148.07 120.69 220.62 161.23 286.93"/><path class="cls-9" d="M20.45,198.19a49,49,0,0,1-6.89,2.9c-6.27-15.68-9.35-32.65-10.62-49.51,11.92-32.46,49-54.9,83.42-46.57C86.27,104.94,8.89,119.27,20.45,198.19Z"/><path class="cls-10" d="M86.89,105.38q-3.06-.43-6.18-.63h-.13c-1.68-.11-3.38-.16-5.1-.16a81.75,81.75,0,0,0-14.14,1.23.55.55,0,0,1-.51.09h0q-3.07.57-6.06,1.36a79.73,79.73,0,0,0-39.88,24.86c-1,1.14-1.93,2.3-2.83,3.49A77,77,0,0,0,.42,157c-.09-1.38-.17-2.77-.22-4.16h0c-.13-2.9-.2-5.83-.2-8.77A201,201,0,0,1,5,99.26a2.29,2.29,0,0,1,.11-.49h0l.12,0,.61-.3a80.33,80.33,0,0,1,34.55-7.75c1.57,0,3.12,0,4.66.14h0a35,35,0,0,1,7.15.69h0a80.59,80.59,0,0,1,14.69,3.6A79.41,79.41,0,0,1,86.89,105.38Z"/></svg>